<?xml version="1.0" standalone="no"?>
<!DOCTYPE svg PUBLIC "-//W3C//DTD SVG 20010904//EN"
 "http://www.w3.org/TR/2001/REC-SVG-20010904/DTD/svg10.dtd">
<svg version="1.0" xmlns="http://www.w3.org/2000/svg"
 width="1000.000000pt" height="1000.000000pt" viewBox="0 0 1000.000000 1000.000000"
 preserveAspectRatio="xMidYMid meet">

<g transform="translate(0.000000,1000.000000) scale(0.100000,-0.100000)"
fill="#000000" stroke="none">
<path d="M5420 9820 c0 -20 -5 -30 -15 -30 -10 0 -15 -10 -15 -30 l0 -30 -80
0 -80 0 0 -240 0 -240 55 0 55 0 0 -39 c0 -22 5 -43 10 -46 6 -3 10 -14 10
-23 0 -15 -2 -15 -10 -2 -8 12 -10 9 -10 -12 l0 -28 238 0 238 0 2 30 c2 30 2
30 -48 30 l-50 0 0 79 c0 77 1 79 22 73 12 -3 17 -7 10 -10 -6 -2 -12 -8 -12
-13 0 -14 33 -11 58 7 27 19 29 4 2 -21 -21 -19 -27 -45 -11 -45 6 0 17 10 25
22 9 12 16 19 16 14 0 -5 7 -3 15 4 12 10 13 16 4 26 -9 11 -8 14 5 14 12 0
16 10 16 43 l1 42 14 -30 c7 -16 14 -23 14 -14 1 8 -6 24 -14 35 -17 23 -22
210 -5 199 6 -3 10 -1 10 4 0 6 -4 11 -10 11 -6 0 -10 32 -10 77 0 60 3 74 12
65 7 -7 20 -12 30 -12 17 0 18 -14 18 -211 l0 -211 75 4 c87 4 98 -10 35 -42
-43 -22 -85 -25 -124 -10 -14 5 -26 8 -26 7 0 -1 9 -24 19 -52 l19 -50 110 -3
110 -3 26 31 c28 34 33 59 15 77 -8 8 -8 13 0 17 19 12 12 34 -11 39 l-23 4
23 2 c15 1 22 7 22 21 0 11 -5 20 -11 20 -6 0 -8 15 -4 43 8 50 -1 61 -59 70
-21 4 -49 15 -61 27 -12 11 -31 20 -43 20 -25 0 -30 27 -11 62 8 14 8 23 0 31
-6 6 -11 46 -11 89 l0 78 -50 0 c-49 0 -50 1 -50 30 l0 30 -240 0 -240 0 0
-30z m80 -130 c0 -5 -5 -10 -11 -10 -5 0 -7 5 -4 10 3 6 8 10 11 10 2 0 4 -4
4 -10z m-37 -25 c-3 -9 -8 -14 -10 -11 -3 3 -2 9 2 15 9 16 15 13 8 -4z m295
-53 c3 -18 -1 -22 -22 -22 -31 0 -42 16 -25 36 17 21 43 13 47 -14z m-311 -34
c-2 -13 -4 -5 -4 17 -1 22 1 32 4 23 2 -10 2 -28 0 -40z m92 38 c16 -20 -3
-56 -29 -56 -26 0 -32 13 -20 44 11 29 31 34 49 12z m-92 -143 c-2 -16 -4 -5
-4 22 0 28 2 40 4 28 2 -13 2 -35 0 -50z m600 2 c-4 -8 -14 -15 -23 -15 -16 0
-16 2 1 20 20 22 31 20 22 -5z m-657 -45 c0 -16 -4 -30 -10 -30 -11 0 -14 43
-3 53 11 12 13 8 13 -23z m430 -2 c0 -25 -3 -29 -10 -18 -13 20 -13 50 0 50 6
0 10 -15 10 -32z m-343 -25 c-4 -17 -4 -17 -12 0 -4 9 -4 25 0 35 8 16 8 16
12 0 3 -10 3 -26 0 -35z m314 30 c1 -5 3 -24 4 -43 2 -20 4 -40 5 -45 10 -47
-12 -44 -36 5 -10 22 -22 40 -26 40 -9 0 34 47 45 49 4 1 7 -2 8 -6z m-360
-40 c-12 -20 -14 -14 -5 12 4 9 9 14 11 11 3 -2 0 -13 -6 -23z m125 -60 c11 0
14 7 9 26 l-6 26 16 -22 c13 -18 19 -20 29 -10 8 6 11 18 9 25 -4 8 0 10 11 6
9 -3 16 -14 16 -23 0 -12 2 -13 9 -3 4 7 25 15 45 17 32 3 36 1 31 -13 -4 -10
-10 -25 -13 -36 -5 -17 -6 -17 -24 5 l-18 24 -19 -23 c-16 -18 -29 -22 -69
-21 -42 2 -52 6 -61 25 -6 13 -7 32 -4 41 5 14 9 11 15 -13 4 -18 14 -31 24
-31z m-115 -3 c5 0 14 10 19 23 5 12 9 18 10 12 1 -5 3 -20 6 -32 3 -18 -1
-23 -16 -23 -29 0 -48 21 -41 45 5 19 6 19 9 -2 2 -13 8 -23 13 -23z m617 28
c-6 -18 -28 -21 -28 -4 0 9 7 16 16 16 9 0 14 -5 12 -12z"/>
<path d="M5710 9610 c0 -5 6 -10 14 -10 8 0 18 5 21 10 3 6 -3 10 -14 10 -12
0 -21 -4 -21 -10z"/>
<path d="M5500 9600 c0 -5 9 -10 20 -10 11 0 20 5 20 10 0 6 -9 10 -20 10 -11
0 -20 -4 -20 -10z"/>
<path d="M4070 9570 l0 -240 240 0 240 0 0 35 c0 31 -3 35 -25 35 l-25 0 0
205 0 205 -215 0 -215 0 0 -240z"/>
<path d="M4857 9637 c-2 -6 -16 -12 -32 -12 -24 -1 -31 -7 -36 -31 -4 -16 -11
-40 -16 -54 -7 -17 -7 -33 1 -49 8 -19 8 -25 -1 -28 -7 -3 -23 -14 -35 -25
-13 -11 -17 -16 -9 -12 10 5 13 3 9 -7 -4 -11 4 -14 37 -14 24 0 47 4 52 9 4
5 -2 5 -16 1 -17 -5 -21 -4 -16 5 4 6 18 9 35 5 27 -6 27 -6 50 87 12 51 26
95 31 98 4 3 -5 13 -21 22 -20 11 -30 13 -33 5z m-27 -46 c0 -6 -4 -13 -10
-16 -5 -3 -10 1 -10 9 0 9 5 16 10 16 6 0 10 -4 10 -9z m-30 -139 c0 -11 -41
-34 -48 -27 -4 4 2 13 12 21 22 15 36 18 36 6z"/>
<path d="M4765 9590 c3 -5 8 -10 11 -10 2 0 4 5 4 10 0 6 -5 10 -11 10 -5 0
-7 -4 -4 -10z"/>
<path d="M4956 9543 c-8 -44 -18 -53 -33 -30 -5 7 -10 -3 -15 -28 -10 -58 -9
-85 2 -85 6 0 10 8 10 18 0 9 4 24 10 32 7 12 12 12 29 -4 21 -19 21 -19 20
35 -1 30 -4 65 -8 79 -7 23 -8 21 -15 -17z"/>
<path d="M6427 9513 c-11 -10 -8 -25 3 -18 6 3 10 2 10 -4 0 -5 -4 -13 -10
-16 -6 -4 -10 -82 -10 -201 0 -123 4 -194 10 -194 6 0 10 -5 10 -11 0 -5 -4
-7 -10 -4 -5 3 -10 -1 -10 -9 0 -9 8 -15 18 -14 9 1 90 0 180 0 l162 -2 0
-125 0 -125 74 0 c69 0 74 1 69 20 -3 11 0 20 6 20 9 0 9 5 1 20 -7 12 -7 20
-1 20 5 0 13 -10 16 -21 6 -18 13 -20 41 -16 20 4 32 2 29 -4 -4 -5 -13 -9
-21 -9 -8 0 -14 -5 -14 -11 0 -5 5 -7 10 -4 6 3 10 1 10 -4 0 -7 24 -11 60
-11 l60 0 0 -165 0 -165 240 0 240 0 0 25 c0 23 3 24 74 27 l75 3 -22 49 c-19
46 -20 49 -3 61 9 7 27 10 39 8 18 -5 20 -3 10 8 -20 21 -15 29 17 29 36 0 40
15 5 24 -14 4 -25 11 -25 16 0 14 38 50 53 50 6 1 -5 16 -26 34 -31 28 -36 38
-32 62 6 31 -31 119 -50 119 -5 0 -19 -17 -30 -37 -18 -33 -25 -38 -57 -38
-31 0 -40 5 -58 35 -12 19 -24 35 -26 35 -9 0 -44 -85 -44 -108 0 -14 -15 -37
-37 -57 l-38 -35 30 0 c26 0 30 -4 32 -31 2 -25 -1 -29 -17 -24 -10 3 -21 1
-25 -5 -3 -5 2 -10 13 -10 28 0 34 -11 14 -26 -15 -12 -14 -13 10 -14 37 0 45
-34 23 -100 l-17 -50 -59 0 -59 0 0 42 0 41 -23 -21 c-13 -12 -34 -22 -47 -22
-22 0 -21 4 23 48 38 38 47 55 47 82 l0 34 -74 -73 -73 -73 -6 39 c-9 49 -9
157 -1 177 3 9 15 16 25 16 14 0 19 -8 20 -27 1 -32 5 -83 7 -98 3 -17 102 89
102 109 0 17 -6 14 -40 -19 -25 -24 -40 -33 -40 -24 0 8 18 33 40 54 37 36 40
43 40 92 l0 53 -55 0 -55 0 0 165 0 165 -180 0 -180 0 0 41 c0 24 -7 47 -16
57 -11 10 -13 17 -5 20 6 2 11 12 11 23 0 14 -7 19 -30 19 -16 0 -30 -4 -30
-10 0 -5 -5 -10 -11 -10 -5 0 -7 5 -4 10 3 6 -3 10 -14 10 -31 0 -26 16 13 39
39 25 53 27 36 6 -7 -8 -8 -15 -3 -15 11 0 53 42 53 53 0 13 -199 8 -220 -5
-17 -11 -22 -10 -30 2 -9 13 -11 13 -20 0 -6 -10 -10 -11 -10 -2 0 8 -18 12
-58 12 -33 0 -64 -5 -71 -12 -11 -10 -14 -10 -18 0 -5 13 -35 17 -46 5z m181
-8 c-2 -3 -29 -9 -59 -15 -30 -6 -67 -20 -84 -31 l-30 -22 27 28 c25 26 68 41
127 44 13 0 22 -1 19 -4z m162 -40 c0 -3 -9 -5 -20 -5 -11 0 -20 7 -20 15 0
13 4 14 20 5 11 -6 20 -13 20 -15z m-250 -195 c0 -5 -4 -10 -9 -10 -6 0 -13 5
-16 10 -3 6 1 10 9 10 9 0 16 -4 16 -10z m-61 -52 c0 -35 -2 -39 -9 -21 -8 19
-3 63 6 63 2 0 4 -19 3 -42z m578 -28 c-1 -3 2 -25 6 -48 6 -37 10 -42 22 -32
12 10 16 9 21 -5 4 -9 2 -20 -4 -24 -6 -3 -16 -29 -23 -56 -6 -28 -16 -56 -22
-62 -10 -14 -58 -18 -56 -5 1 4 0 10 -1 15 -5 14 -8 27 -9 41 0 7 -9 16 -19
18 -22 6 -37 75 -21 94 6 7 9 18 8 26 -3 26 1 38 21 58 19 19 21 19 49 2 16
-9 29 -19 28 -22z m-444 -20 c8 0 12 -19 12 -54 0 -30 -2 -51 -5 -47 -3 5 -15
13 -28 20 -18 10 -27 10 -38 0 -11 -9 -14 -8 -14 5 0 9 -7 16 -15 16 -24 0
-18 12 28 51 29 26 43 33 45 23 2 -8 9 -14 15 -14z m565 -1 c-6 -16 -12 -28
-14 -26 -5 5 13 57 20 57 3 0 0 -14 -6 -31z m-695 -58 c3 -14 0 -17 -14 -14
-19 5 -25 24 -13 36 10 9 21 0 27 -22z m434 -68 c-3 -2 -20 -3 -39 -1 l-33 3
35 22 c35 22 35 22 38 2 2 -11 1 -23 -1 -26z m-427 17 c0 -5 -2 -10 -4 -10 -3
0 -8 5 -11 10 -3 6 -1 10 4 10 6 0 11 -4 11 -10z m450 -64 c0 -2 -7 -7 -16
-10 -8 -3 -12 -2 -9 4 6 10 25 14 25 6z m345 -155 c3 -5 1 -12 -5 -16 -5 -3
-10 -1 -10 5 0 7 -7 9 -16 6 -8 -3 -12 -2 -9 4 8 13 32 13 40 1z m55 5 c0 -2
-7 -9 -15 -16 -12 -10 -15 -10 -15 4 0 9 7 16 15 16 8 0 15 -2 15 -4z m370
-112 c0 -8 -4 -14 -10 -14 -5 0 -10 9 -10 21 0 11 5 17 10 14 6 -3 10 -13 10
-21z m-50 -14 c5 0 11 6 13 13 4 7 6 6 6 -4 1 -25 -27 -32 -38 -10 -6 10 -7
22 -3 26 4 4 8 0 10 -9 2 -9 7 -16 12 -16z"/>
<path d="M5943 9292 c-13 -2 -23 -8 -23 -13 0 -13 37 -11 45 2 9 14 5 16 -22
11z"/>
<path d="M2948 9179 c-10 -5 -18 -15 -18 -21 0 -6 -16 -28 -35 -49 -19 -22
-35 -43 -35 -49 0 -5 -11 -12 -25 -16 -21 -5 -23 -9 -14 -27 9 -16 8 -23 -4
-32 -13 -9 -14 -14 -5 -23 7 -7 18 -12 26 -12 9 0 12 -6 8 -16 -4 -12 -2 -15
9 -10 9 3 15 0 15 -8 0 -8 14 -19 30 -26 33 -14 36 -20 18 -38 -20 -20 19 -52
62 -52 24 0 40 -5 44 -15 7 -20 25 -19 33 3 4 9 11 20 17 24 15 10 46 -10 40
-27 -4 -9 0 -15 9 -15 9 0 22 -3 31 -6 11 -4 16 -1 16 11 0 9 9 24 21 33 13
11 18 23 14 35 -8 19 -35 23 -52 6 -9 -9 -16 -7 -29 5 -16 17 -15 19 14 45 18
14 32 36 32 48 0 12 6 23 13 26 9 3 8 8 -4 18 -19 16 -39 71 -39 107 0 18 -4
23 -15 18 -9 -3 -32 3 -53 14 -20 11 -46 20 -57 19 -12 0 -6 -5 15 -11 19 -5
42 -16 51 -24 8 -8 23 -14 32 -14 9 0 16 -8 15 -17 0 -23 24 -86 37 -95 6 -5
5 -11 -4 -17 -7 -5 -11 -14 -7 -20 4 -5 -2 -19 -13 -30 -20 -20 -20 -20 -23 1
-3 21 -4 21 -18 3 -9 -11 -10 -16 -2 -11 7 4 12 2 12 -4 0 -7 -7 -9 -16 -6 -9
3 -17 6 -20 6 -2 0 -1 12 2 28 4 22 -2 33 -36 60 l-40 33 4 -46 c2 -26 8 -51
14 -57 15 -15 34 1 27 23 -5 15 -3 17 10 13 11 -5 15 -13 10 -28 -13 -44 -13
-56 -4 -62 5 -3 17 0 26 8 14 11 16 11 11 -2 -5 -17 -48 -27 -48 -11 0 14 -37
14 -45 1 -4 -6 -12 -6 -23 0 -9 5 -29 11 -44 14 -28 6 -58 31 -58 47 0 6 5 7
12 3 6 -4 8 -3 4 4 -3 6 -2 13 4 17 5 3 10 -1 10 -9 0 -9 7 -16 15 -16 18 0
20 21 3 40 -7 8 0 4 15 -10 23 -20 30 -22 37 -11 4 8 5 21 2 30 -5 13 -7 11
-12 -7 l-5 -24 -21 24 c-11 13 -19 30 -16 38 2 8 -8 -4 -23 -27 -25 -41 -45
-55 -45 -33 0 6 -9 10 -20 10 -24 0 -26 13 -5 30 12 10 13 16 4 26 -9 11 -7
15 5 20 9 4 24 20 32 36 8 16 26 34 39 40 14 6 25 19 25 28 0 22 20 40 45 39
11 0 14 -3 7 -6 -7 -2 -17 -13 -22 -24 -8 -15 -7 -19 4 -19 9 0 13 6 10 14 -3
9 3 17 15 21 12 3 19 11 16 16 -8 12 -45 11 -67 -2z m82 -189 c0 -5 -2 -10 -4
-10 -3 0 -8 5 -11 10 -3 6 -1 10 4 10 6 0 11 -4 11 -10z m-36 -140 c13 -13 -1
-40 -22 -40 -10 0 -27 6 -37 14 -17 12 -17 16 -6 30 14 16 45 14 65 -4z m67
-6 c11 -13 10 -17 -4 -25 -9 -6 -14 -17 -11 -27 5 -15 4 -15 -8 -1 -7 9 -18
18 -24 20 -16 6 1 49 19 49 8 0 21 -7 28 -16z m64 -4 c15 -17 19 -17 32 -5 20
20 28 19 30 -4 2 -25 -18 -32 -58 -21 -33 10 -52 28 -43 42 8 13 20 9 39 -12z
m32 -57 c3 -7 -4 -9 -16 -6 -12 3 -18 9 -15 15 7 11 26 6 31 -9z"/>
<path d="M7442 9068 c7 -3 24 -4 38 -1 22 4 33 -2 62 -36 25 -29 43 -41 62
-41 24 0 25 2 16 20 -6 11 -28 32 -49 45 -29 20 -48 25 -89 23 -28 -1 -46 -6
-40 -10z"/>
<path d="M7944 8675 c-4 -8 -3 -22 0 -31 6 -15 9 -15 29 5 13 11 33 21 45 21
12 0 22 5 22 10 0 17 -90 12 -96 -5z"/>
<path d="M8190 8665 c-7 -9 -11 -18 -8 -20 3 -3 11 1 18 10 9 11 17 12 31 4
11 -5 19 -6 19 0 0 9 -23 21 -40 21 -4 0 -13 -7 -20 -15z"/>
<path d="M1750 8410 l0 -230 25 0 c14 0 25 -4 25 -10 0 -6 78 -10 215 -10
l215 0 0 240 0 240 -240 0 -240 0 0 -230z m254 -9 c3 -5 -1 -11 -9 -15 -9 -3
-15 0 -15 9 0 16 16 20 24 6z m-49 -36 c0 -15 -88 -12 -93 3 -3 10 8 12 44 10
27 -2 49 -7 49 -13z m185 -16 c0 -10 -6 -19 -14 -19 -19 0 -28 14 -20 33 8 21
34 10 34 -14z m-220 -18 c0 -5 -8 -11 -17 -13 -23 -5 -54 2 -49 11 7 11 66 12
66 2z m29 -46 c15 3 38 1 52 -4 19 -8 12 -10 -39 -10 -65 -1 -107 12 -96 30 4
6 15 4 31 -6 15 -10 34 -14 52 -10z"/>
<path d="M6230 8514 l0 -116 33 28 c114 96 298 101 404 9 l38 -33 -24 -26
c-14 -15 -50 -39 -80 -54 -46 -22 -69 -27 -131 -27 -89 0 -135 15 -195 61
l-45 34 0 -120 0 -120 240 0 240 0 0 240 0 240 -240 0 -240 0 0 -116z"/>
<path d="M7941 8552 c-6 -11 -8 -22 -4 -25 3 -4 -6 -11 -19 -16 -29 -11 -40
-44 -32 -93 10 -59 11 -61 36 -44 24 17 58 21 58 7 0 -4 -15 -12 -32 -17 -37
-11 -44 -28 -29 -67 10 -25 15 -27 69 -27 33 0 73 5 90 11 57 20 62 4 62 -185
l0 -166 39 0 c34 0 39 3 49 33 l11 32 -5 -32 -6 -33 196 0 196 0 0 240 0 240
-155 0 -155 0 0 -51 0 -51 31 26 c35 29 49 33 49 11 0 -12 5 -13 26 -5 32 12
89 3 105 -16 9 -11 9 -14 0 -14 -7 0 -3 -11 8 -27 20 -28 24 -43 22 -77 -1
-12 -6 -16 -16 -12 -10 3 -15 -1 -16 -12 0 -14 -2 -13 -8 3 -7 16 -9 12 -13
-20 -5 -34 -2 -43 18 -58 52 -40 14 -72 -79 -65 -44 3 -55 2 -40 -5 19 -8 25
-36 14 -65 0 -2 -15 7 -32 19 -22 15 -29 27 -25 41 4 17 1 19 -21 15 -15 -3
-36 -1 -48 5 -23 10 -62 74 -52 85 4 3 1 13 -5 21 -19 22 -16 45 7 59 18 11
18 12 2 13 -23 0 -13 18 17 30 16 7 9 9 -31 9 -28 1 -58 4 -67 7 -24 9 -19 26
4 19 12 -4 27 -1 35 5 17 14 20 50 5 50 -5 0 -10 10 -10 22 0 20 -4 18 -39
-16 -30 -29 -44 -36 -60 -31 -17 5 -21 2 -21 -15 0 -12 -4 -18 -10 -15 -6 4
-10 42 -9 91 1 67 -2 89 -17 111 -10 16 -23 37 -29 48 -14 27 -51 31 -64 7z
m329 -544 c0 -4 -6 -8 -14 -8 -8 0 -17 4 -20 8 -2 4 4 8 15 8 10 0 19 -4 19
-8z m120 -53 c0 -8 -9 -15 -20 -15 -11 0 -20 7 -20 15 0 8 9 15 20 15 11 0 20
-7 20 -15z"/>
<path d="M6435 8468 c-70 -41 -55 -131 25 -144 44 -7 77 17 86 63 5 27 1 37
-24 63 -32 32 -55 37 -87 18z m60 -44 c19 -20 16 -43 -7 -58 -38 -23 -78 35
-42 61 23 17 29 16 49 -3z"/>
<path d="M8326 8174 c-4 -9 -4 -19 -2 -21 8 -8 26 8 26 23 0 19 -16 18 -24 -2z"/>
<path d="M8430 8166 c0 -9 7 -16 16 -16 9 0 14 5 12 12 -6 18 -28 21 -28 4z"/>
<path d="M8394 8118 c-4 -5 1 -17 9 -26 14 -13 21 -14 43 -3 20 9 24 15 16 23
-15 15 -60 19 -68 6z"/>
<path d="M1318 8112 l-158 -3 1 -242 c1 -133 3 -234 6 -224 6 21 17 22 33 2
10 -12 48 -15 226 -15 l214 0 0 54 c0 49 2 55 23 58 12 2 26 13 32 26 5 12 13
22 18 22 4 0 5 5 2 11 -5 7 -14 4 -27 -8 -20 -18 -20 -17 -14 5 5 13 3 22 -3
22 -6 0 -11 -4 -11 -10 0 -5 -4 -10 -10 -10 -6 0 -9 60 -9 151 0 83 -1 153 -3
155 -7 6 -155 9 -320 6z m152 -346 c0 -11 -19 -15 -25 -6 -3 5 1 10 9 10 9 0
16 -2 16 -4z"/>
<path d="M8786 7581 c-10 -11 -13 -20 -7 -22 17 -6 -4 -30 -27 -32 -12 -1 -22
-5 -22 -10 0 -5 12 -7 28 -6 15 2 32 0 39 -4 7 -5 17 1 24 15 7 13 17 26 23
30 6 4 4 14 -8 27 -23 26 -28 26 -50 2z"/>
<path d="M9066 7543 c-18 -53 -20 -79 -6 -88 9 -5 22 32 36 103 10 49 -12 39
-30 -15z"/>
<path d="M9226 7516 c3 -9 -5 -20 -23 -30 -15 -8 -21 -15 -13 -16 13 0 46 18
70 37 5 4 -21 23 -32 23 -4 0 -5 -6 -2 -14z"/>
<path d="M8839 7506 c14 -17 51 -28 51 -15 0 10 -33 29 -51 29 -9 0 -9 -3 0
-14z"/>
<path d="M8910 7486 c0 -14 5 -28 10 -31 6 -3 10 5 10 19 0 14 -4 28 -10 31
-6 3 -10 -5 -10 -19z"/>
<path d="M8785 7470 c-3 -5 -4 -14 0 -20 8 -13 35 -1 35 16 0 16 -26 19 -35 4z"/>
<path d="M8590 7450 c0 -5 5 -10 10 -10 6 0 10 5 10 10 0 6 -4 10 -10 10 -5 0
-10 -4 -10 -10z"/>
<path d="M9073 7442 c-35 -3 -43 -7 -43 -23 0 -10 4 -19 8 -19 5 0 14 -11 20
-25 10 -21 9 -32 -4 -56 -18 -36 -23 -34 -26 8 l-2 31 -24 -19 c-14 -10 -34
-19 -46 -19 -11 0 -28 -5 -36 -10 -13 -9 -12 -12 5 -22 25 -14 82 -73 95 -99
10 -18 7 -19 -54 -19 -54 0 -67 -3 -76 -19 -5 -11 -10 -22 -10 -25 0 -3 73 -5
163 -5 89 1 154 3 145 6 -10 2 -18 9 -18 14 0 6 -7 17 -15 25 -13 14 -18 12
-39 -12 -21 -25 -26 -27 -50 -16 -16 7 -26 20 -26 33 0 21 1 21 18 6 23 -21
32 -21 32 -2 0 8 9 19 20 25 14 8 20 8 20 0 0 -7 8 -9 23 -4 12 4 36 8 52 9
17 1 36 3 43 4 6 0 12 10 12 22 0 11 -4 17 -10 14 -5 -3 -10 0 -10 7 -1 7 -2
34 -4 61 -2 26 0 50 5 53 5 3 9 17 9 32 0 22 -2 24 -11 12 -7 -10 -12 -11 -15
-4 -3 7 -14 10 -24 7 -11 -3 -34 3 -52 13 -22 13 -48 18 -75 16z m47 -52 c0
-5 -7 -10 -15 -10 -8 0 -15 5 -15 10 0 6 7 10 15 10 8 0 15 -4 15 -10z m-10
-64 c0 -2 3 -13 6 -23 5 -16 4 -16 -11 2 -14 17 -17 18 -25 5 -5 -8 -10 -10
-10 -4 0 6 3 14 7 17 7 8 33 10 33 3z m10 -66 c0 -5 -9 -14 -20 -20 -17 -9
-20 -8 -20 10 0 13 7 20 20 20 11 0 20 -4 20 -10z m-20 -45 c0 -2 -10 -10 -22
-16 -21 -11 -22 -11 -9 4 13 16 31 23 31 12z"/>
<path d="M8769 7371 c-1 -3 -1 -10 0 -15 1 -4 -3 -14 -10 -22 -9 -11 -8 -15 4
-20 20 -7 37 3 37 22 0 8 7 14 15 14 8 0 15 4 15 9 0 10 -59 21 -61 12z"/>
<path d="M1130 7120 l0 -240 240 0 240 0 0 240 0 240 -50 0 -50 0 3 -35 c1
-25 7 -35 19 -35 14 0 17 -8 17 -37 -1 -21 1 -55 3 -75 3 -21 2 -35 -3 -32
-10 6 -33 -73 -30 -103 3 -24 -14 -32 -22 -10 -3 6 -6 2 -6 -10 -1 -13 -5 -23
-10 -23 -15 0 1 91 21 116 11 15 2 40 -31 84 -14 19 -35 57 -46 85 -25 63 -61
80 -102 48 -23 -16 -28 -28 -29 -64 0 -25 -10 -63 -23 -88 -18 -35 -21 -53
-16 -90 3 -26 9 -51 13 -56 10 -14 42 -15 42 -2 0 6 3 8 6 5 7 -7 -45 -88 -56
-88 -5 0 -6 10 -4 23 2 12 2 16 -2 10 -4 -10 -9 -9 -21 3 -9 8 -22 13 -29 10
-8 -3 -14 -1 -14 3 0 5 6 11 13 14 9 3 9 7 -1 19 -6 8 -14 35 -16 59 -2 24 -5
44 -6 44 -1 0 -3 15 -5 32 -2 20 1 30 7 27 6 -4 8 2 3 15 -4 14 -2 21 7 21 11
0 11 2 0 9 -11 7 -10 15 4 47 29 67 27 74 -23 74 l-43 0 0 -240z m262 158 c-7
-7 -12 -8 -12 -2 0 14 12 26 19 19 2 -3 -1 -11 -7 -17z m18 -47 c0 -4 -9 -16
-20 -26 -19 -18 -22 -18 -38 -2 -16 17 -16 18 5 23 14 4 20 11 16 21 -5 13 -3
13 15 4 12 -7 22 -15 22 -20z m35 -62 c10 -15 -1 -23 -20 -15 -9 3 -13 10 -10
16 8 13 22 13 30 -1z m-115 -5 c0 -16 -23 -44 -35 -44 -16 0 -18 9 -9 34 6 15
44 24 44 10z m74 -29 c-4 -8 -10 -12 -15 -9 -6 3 -16 1 -23 -5 -10 -9 -15 -8
-19 3 -8 19 1 26 34 26 21 0 27 -4 23 -15z m193 -87 c-2 -18 -4 -6 -4 27 0 33
2 48 4 33 2 -15 2 -42 0 -60z m-144 -30 c4 -12 4 -24 1 -27 -6 -7 -24 20 -24
37 0 21 17 13 23 -10z m-65 -78 c4 0 14 9 22 19 7 11 17 18 21 15 11 -7 -28
-44 -46 -44 -17 0 -56 35 -48 43 2 3 13 -3 24 -14 10 -10 23 -19 27 -19z
m-148 -40 c0 -5 -4 -10 -10 -10 -5 0 -10 5 -10 10 0 6 5 10 10 10 6 0 10 -4
10 -10z"/>
<path d="M8636 7285 c-3 -9 -6 -24 -6 -33 0 -13 4 -11 16 7 11 15 13 26 6 33
-6 6 -12 4 -16 -7z"/>
<path d="M8870 7250 c0 -5 7 -10 15 -10 8 0 15 -4 15 -10 0 -5 5 -10 10 -10 6
0 10 9 10 20 0 15 -7 20 -25 20 -14 0 -25 -4 -25 -10z"/>
<path d="M8680 7189 c0 -5 5 -7 10 -4 6 3 10 8 10 11 0 2 -4 4 -10 4 -5 0 -10
-5 -10 -11z"/>
<path d="M8714 7188 c-4 -6 -3 -8 4 -4 6 3 13 2 17 -4 8 -13 62 -13 70 0 3 6
2 10 -4 10 -5 0 -17 3 -27 7 -13 5 -15 3 -9 -8 6 -11 5 -12 -6 -1 -16 15 -36
16 -45 0z"/>
<path d="M501 6984 c0 -11 3 -14 6 -6 3 7 2 16 -1 19 -3 4 -6 -2 -5 -13z"/>
<path d="M501 6904 c0 -11 3 -14 6 -6 3 7 2 16 -1 19 -3 4 -6 -2 -5 -13z"/>
<path d="M678 6883 c7 -3 16 -2 19 1 4 3 -2 6 -13 5 -11 0 -14 -3 -6 -6z"/>
<path d="M8930 6630 c0 -233 1 -240 20 -240 19 0 20 7 20 240 0 233 -1 240
-20 240 -19 0 -20 -7 -20 -240z"/>
<path d="M9380 6630 l0 -240 -100 0 -100 0 0 -85 0 -85 240 0 240 0 0 126 0
127 -70 -5 c-39 -3 -74 -8 -77 -12 -3 -3 -1 -18 6 -32 10 -23 9 -26 -4 -21
-10 5 -15 0 -15 -15 0 -20 -13 -18 -16 3 -1 5 -2 14 -3 19 -2 20 -18 9 -17
-11 1 -27 -21 -36 -27 -12 -3 10 -3 -7 0 -37 5 -51 4 -54 -11 -35 -15 20 -15
20 -16 0 0 -11 7 -31 16 -43 8 -12 11 -22 5 -22 -5 0 -13 6 -18 13 -4 6 -6
146 -4 310 3 267 1 297 -13 297 -14 0 -16 -27 -16 -240z"/>
<path d="M9161 6799 c-8 -23 -15 -30 -27 -25 -14 6 -16 0 -9 -49 7 -60 3 -66
-26 -32 -11 14 -18 17 -19 8 0 -9 -8 -12 -24 -9 -22 4 -23 2 -21 -39 1 -34 8
-51 33 -76 18 -18 32 -40 32 -49 0 -10 12 -18 34 -22 32 -6 35 -10 39 -49 l4
-42 1 43 c2 37 5 42 26 42 34 0 57 10 50 22 -4 5 13 30 37 55 29 29 39 47 31
50 -8 3 -11 15 -6 38 5 31 4 32 -20 28 -18 -4 -26 -1 -26 8 0 8 -11 1 -25 -16
l-25 -30 5 40 c4 22 8 50 11 62 3 17 0 20 -15 16 -14 -3 -21 3 -29 26 -14 39
-17 39 -31 0z m6 -221 c7 19 33 14 33 -7 0 -27 -21 -40 -47 -30 -14 5 -23 17
-23 30 0 19 2 20 17 8 13 -11 17 -11 20 -1z"/>
<path d="M920 6816 c0 -2 8 -10 18 -17 15 -13 16 -12 3 4 -13 16 -21 21 -21
13z"/>
<path d="M628 6803 c14 -6 16 -43 2 -43 -5 0 -10 -9 -10 -20 0 -11 7 -20 15
-20 11 0 15 12 15 45 0 36 -3 45 -17 44 -11 0 -13 -3 -5 -6z"/>
<path d="M531 6744 c0 -11 3 -14 6 -6 3 7 2 16 -1 19 -3 4 -6 -2 -5 -13z"/>
<path d="M751 6751 c-8 -5 -9 -11 -3 -15 13 -8 72 4 72 15 0 11 -51 11 -69 0z"/>
<path d="M808 6614 c12 -8 19 -20 16 -26 -5 -7 -2 -8 5 -4 9 6 8 13 -5 27 -9
10 -22 19 -28 19 -6 0 0 -7 12 -16z"/>
<path d="M676 6611 c-19 -7 -18 -8 4 -14 13 -3 26 -4 29 -2 2 3 -2 5 -10 5
-11 0 -11 2 1 10 18 11 3 12 -24 1z"/>
<path d="M365 6600 c-4 -6 5 -10 20 -10 15 0 24 4 20 10 -3 6 -12 10 -20 10
-8 0 -17 -4 -20 -10z"/>
<path d="M728 6583 c7 -3 16 -2 19 1 4 3 -2 6 -13 5 -11 0 -14 -3 -6 -6z"/>
<path d="M320 6550 c0 -5 6 -10 14 -10 8 0 18 5 21 10 3 6 -3 10 -14 10 -12 0
-21 -4 -21 -10z"/>
<path d="M502 6548 c-20 -20 -14 -40 11 -36 14 2 23 11 25 26 4 24 -16 30 -36
10z"/>
<path d="M681 6547 c-6 -8 -7 -18 -3 -22 4 -5 1 -5 -6 -1 -14 8 -44 -54 -44
-92 -1 -27 31 -65 48 -58 6 2 16 0 22 -6 7 -7 12 -3 17 11 3 12 11 21 17 21 5
0 8 6 5 13 -4 10 3 13 22 12 27 -2 27 -1 29 67 l3 68 -49 0 c-29 0 -54 -6 -61
-13z"/>
<path d="M486 6463 c-2 -10 -8 -29 -11 -42 -4 -14 -3 -21 2 -18 6 4 15 -5 22
-19 12 -28 37 -28 35 -1 0 10 -1 35 -2 57 -2 32 -6 40 -21 40 -11 0 -22 -8
-25 -17z"/>
<path d="M9430 6424 c0 -8 5 -12 10 -9 6 4 8 11 5 16 -9 14 -15 11 -15 -7z"/>
<path d="M717 6336 c-3 -8 -3 -17 1 -20 9 -10 14 -45 16 -108 1 -49 4 -59 24
-68 32 -14 32 -14 32 28 1 20 7 48 15 62 19 33 19 79 0 86 -8 4 -15 12 -15 20
0 19 -66 19 -73 0z"/>
<path d="M6574 6324 c-18 -14 -18 -15 4 -4 12 6 22 13 22 15 0 8 -5 6 -26 -11z"/>
<path d="M6525 6200 c-3 -5 -1 -10 4 -10 6 0 11 5 11 10 0 6 -2 10 -4 10 -3 0
-8 -4 -11 -10z"/>
<path d="M6560 6191 c0 -11 -5 -21 -10 -23 -6 -2 -2 -8 8 -14 16 -10 17 -8 14
22 -5 37 -12 46 -12 15z"/>
<path d="M6591 6130 c-10 -30 -6 -36 14 -22 13 9 17 52 5 52 -4 0 -13 -13 -19
-30z"/>
<path d="M6491 6079 c7 -60 14 -78 25 -66 7 7 -15 115 -25 121 -4 3 -4 -22 0
-55z"/>
<path d="M6610 6083 c0 -12 7 -28 15 -37 28 -27 18 -45 -27 -49 -41 -3 -40 -4
10 -5 51 -2 52 -1 46 23 -4 15 -2 25 5 25 8 0 8 6 -1 19 -7 11 -15 18 -19 15
-4 -2 -12 4 -18 13 -9 16 -10 16 -11 -4z"/>
<path d="M6706 6024 c-8 -21 4 -40 14 -23 7 10 11 10 24 0 11 -9 16 -10 16 -2
0 6 -4 11 -9 11 -5 0 -16 7 -24 15 -13 13 -16 13 -21 -1z"/>
<path d="M6490 5982 c0 -11 9 -27 20 -37 17 -15 30 -16 112 -9 82 7 88 8 53
15 -22 4 -56 4 -75 0 -50 -10 -84 0 -88 27 -4 27 -22 30 -22 4z"/>
<path d="M6675 5990 c3 -5 8 -10 11 -10 2 0 4 5 4 10 0 6 -5 10 -11 10 -5 0
-7 -4 -4 -10z"/>
<path d="M6762 5974 c-11 -12 -9 -14 8 -14 11 0 20 4 20 9 0 17 -15 19 -28 5z"/>
<path d="M6486 5915 c-3 -8 -1 -15 4 -15 6 0 10 7 10 15 0 8 -2 15 -4 15 -2 0
-6 -7 -10 -15z"/>
<path d="M9280 5770 c0 -155 -1 -160 -20 -160 -25 0 -72 -23 -88 -43 -7 -8
-25 -13 -40 -11 -23 3 -28 -1 -30 -22 -1 -14 5 -39 14 -56 13 -25 15 -48 9
-119 -4 -54 -3 -89 4 -93 5 -4 12 3 16 14 3 11 10 20 14 20 4 0 15 6 25 13 17
13 17 15 2 45 -21 41 -20 43 7 37 18 -5 26 -1 35 20 7 14 17 23 22 20 6 -3 10
-1 10 4 0 6 6 11 14 11 8 0 13 -8 12 -17 0 -9 8 -19 20 -22 17 -5 20 -14 20
-58 -1 -45 2 -54 22 -62 21 -10 22 -9 22 37 0 26 -4 52 -10 58 -11 11 -1 56
11 48 5 -3 6 -16 3 -30 -4 -14 -2 -24 5 -24 7 0 11 -32 11 -95 0 -88 -1 -95
-20 -95 -13 0 -18 5 -14 15 9 21 -12 19 -33 -4 -15 -16 -17 -34 -15 -113 4
-90 4 -92 18 -60 18 43 53 92 65 92 5 0 -2 -17 -15 -37 -34 -51 -50 -128 -37
-182 16 -73 82 -150 102 -119 6 9 9 7 9 -8 0 -17 10 -24 45 -34 25 -7 61 -10
81 -7 169 28 244 203 148 350 -13 20 -20 37 -15 37 12 0 47 -49 66 -92 l14
-33 1 63 0 62 40 0 40 0 0 240 0 240 -35 0 -35 0 0 165 c0 164 0 165 -22 165
-23 0 -23 0 -20 -142 3 -111 7 -145 18 -151 19 -11 18 -37 -1 -37 -12 0 -15
-15 -15 -75 l0 -75 -65 0 c-67 0 -69 1 -66 45 2 21 -40 43 -127 65 -29 7 -40
15 -35 23 15 24 11 40 -13 59 -13 11 -24 25 -24 31 0 9 2 9 8 1 4 -6 19 -13
33 -16 23 -4 27 -1 27 20 0 24 19 45 34 36 4 -3 13 7 19 23 8 21 12 24 19 14
4 -8 6 -21 2 -29 -3 -10 -1 -13 6 -8 7 4 12 2 12 -5 0 -7 11 -10 30 -7 20 3
30 0 30 -9 0 -19 23 -16 48 6 24 20 27 45 12 85 -5 15 -6 28 0 31 14 8 -84 95
-108 95 -11 0 -24 5 -27 10 -4 6 -65 10 -151 10 l-144 0 0 -160z m-70 -346 c0
-2 -9 -4 -21 -4 -11 0 -18 4 -14 10 5 8 35 3 35 -6z m564 -25 c41 -28 47 -35
41 -58 -8 -37 -36 -72 -76 -98 -19 -12 -42 -30 -52 -40 -17 -16 -20 -17 -30
-2 -7 9 -28 21 -49 28 -38 12 -48 27 -48 66 0 16 11 30 33 44 19 11 53 36 78
56 24 19 47 35 50 35 3 0 27 -14 53 -31z m-35 -227 c-15 -3 -19 -9 -15 -25 3
-12 3 -16 0 -9 -3 6 -11 9 -17 5 -21 -13 -83 -10 -97 5 -11 12 -10 13 10 7 16
-5 20 -4 15 5 -6 10 -3 10 10 2 21 -11 75 3 75 20 0 5 -5 6 -12 2 -6 -4 -8 -3
-5 4 5 7 15 7 32 -1 23 -11 23 -12 4 -15z m-119 8 c0 -5 -3 -9 -7 -9 -22 4
-35 -2 -30 -14 3 -8 1 -20 -4 -28 -6 -10 -9 -5 -9 18 0 17 6 34 13 36 21 9 37
7 37 -3z m63 -7 c-7 -2 -19 -2 -25 0 -7 3 -2 5 12 5 14 0 19 -2 13 -5z m74
-45 c-3 -7 -5 -2 -5 12 0 14 2 19 5 13 2 -7 2 -19 0 -25z m-267 -12 c0 -9 -30
-14 -35 -6 -4 6 3 10 14 10 12 0 21 -2 21 -4z m-62 -39 c-23 -38 -17 -62 17
-65 17 -2 27 0 23 4 -8 8 9 34 22 34 4 0 8 -10 8 -22 0 -13 4 -35 7 -50 10
-37 -1 -64 -18 -49 -10 8 -17 7 -25 -1 -10 -10 -17 -7 -33 9 -17 17 -19 24
-10 41 9 17 8 23 -6 31 -10 5 -15 13 -11 17 4 3 3 14 -2 24 -6 11 -4 24 6 39
20 28 40 17 22 -12z m272 -36 c0 -12 -28 -22 -34 -12 -3 5 -3 11 1 15 9 9 33
7 33 -3z m-166 -22 c-3 -5 -13 -9 -22 -8 -11 0 -12 2 -4 6 6 2 10 9 7 14 -4 5
1 6 9 3 9 -3 13 -10 10 -15z m121 2 c7 -12 -40 -49 -71 -57 -12 -3 -32 -1 -43
6 -21 11 -21 11 -1 32 22 24 40 18 20 -7 -21 -26 15 -18 47 10 31 27 39 30 48
16z m-65 -91 c8 -5 11 -12 7 -16 -3 -4 -14 -1 -22 6 -13 11 -19 9 -38 -9 -13
-11 -32 -21 -42 -21 -13 0 -9 6 16 24 37 27 56 31 79 16z m-148 -97 c7 -9 7
-13 0 -13 -19 0 -34 29 -26 52 l8 23 4 -25 c2 -14 9 -31 14 -37z"/>
<path d="M9660 5360 c0 -5 8 -6 18 -3 15 6 15 5 3 -11 -12 -15 -12 -19 2 -33
15 -15 16 -14 22 10 4 14 4 31 0 36 -8 14 -45 14 -45 1z"/>
<path d="M9774 5361 c4 -5 1 -11 -5 -13 -7 -2 -9 -13 -4 -26 9 -32 29 -22 33
16 2 24 -1 32 -13 32 -9 0 -14 -4 -11 -9z"/>
<path d="M9690 5150 c-9 -6 -10 -10 -3 -10 6 0 15 5 18 10 8 12 4 12 -15 0z"/>
<path d="M9462 4991 c4 -13 18 -16 19 -4 0 4 -5 9 -11 12 -7 2 -11 -2 -8 -8z"/>
<path d="M9430 4965 c0 -8 5 -15 10 -15 6 0 10 7 10 15 0 8 -4 15 -10 15 -5 0
-10 -7 -10 -15z"/>
<path d="M9485 4961 c-3 -5 -1 -12 5 -16 5 -3 10 1 10 9 0 18 -6 21 -15 7z"/>
<path d="M6510 5910 c0 -5 7 -7 15 -4 8 4 15 8 15 10 0 2 -7 4 -15 4 -8 0 -15
-4 -15 -10z"/>
<path d="M6408 5903 c7 -3 16 -2 19 1 4 3 -2 6 -13 5 -11 0 -14 -3 -6 -6z"/>
<path d="M9522 5574 c10 -10 20 -16 22 -13 3 3 -5 11 -17 18 -21 13 -21 12 -5
-5z"/>
<path d="M9248 5413 c-11 -3 -18 -13 -17 -26 0 -15 2 -17 6 -7 4 8 13 20 22
27 17 13 16 13 -11 6z"/>
<path d="M9224 5304 c3 -8 2 -23 -3 -33 -7 -13 -6 -18 4 -18 8 0 12 4 9 9 -3
4 0 8 5 8 17 0 13 37 -5 44 -12 5 -15 2 -10 -10z"/>
<path d="M239 5298 c-2 -7 -8 -92 -13 -160 l-5 -78 118 0 c72 0 121 -4 128
-11 13 -13 19 2 28 83 6 53 4 61 -26 104 l-31 46 -69 -4 c-52 -3 -69 0 -69 9
0 8 -12 13 -30 13 -16 0 -30 -1 -31 -2z m41 -155 c0 -10 3 -28 6 -40 5 -17 2
-23 -9 -23 -23 0 -29 16 -22 50 7 32 25 41 25 13z m134 1 c9 -22 7 -62 -2 -68
-20 -12 -33 12 -27 48 8 38 19 46 29 20z"/>
<path d="M9255 5242 c2 -2 -2 -11 -10 -19 -21 -21 -18 -35 5 -28 11 3 20 2 20
-4 0 -5 -8 -12 -17 -14 -12 -3 -9 -5 8 -6 27 -1 36 22 17 46 -5 7 -7 16 -4 21
3 5 -1 9 -9 9 -8 0 -13 -2 -10 -5z"/>
<path d="M4762 5053 l3 -186 40 -21 c22 -12 46 -21 54 -21 8 0 16 -7 18 -15 4
-13 3 -13 -6 0 -6 8 -11 11 -11 6 0 -27 32 -43 78 -39 35 3 43 1 32 -6 -11 -8
26 -11 128 -11 l142 0 0 240 0 240 -240 0 -240 0 2 -187z m169 -44 l24 -21 3
22 c3 20 5 20 21 6 16 -15 19 -15 31 -1 16 19 54 19 70 1 18 -22 17 -119 -2
-147 -14 -23 -21 -24 -114 -24 l-99 0 -18 38 c-14 27 -16 41 -8 50 5 7 8 23 4
35 -4 17 -2 21 10 17 10 -4 17 2 21 19 8 31 25 33 57 5z"/>
<path d="M4897 5007 c-11 -29 -9 -43 4 -30 6 6 9 19 7 29 -3 18 -4 18 -11 1z"/>
<path d="M5035 4989 c-8 -23 -1 -34 14 -24 13 8 15 45 2 45 -5 0 -13 -9 -16
-21z"/>
<path d="M9159 5179 c-10 -6 -7 -9 14 -9 29 0 35 5 14 13 -8 3 -20 1 -28 -4z"/>
<path d="M303 5018 c31 -7 63 -7 95 0 44 9 40 10 -48 10 -88 0 -92 -1 -47 -10z"/>
<path d="M9310 4813 l0 -103 103 0 c96 1 100 2 66 14 -74 26 -129 81 -155 155
-12 34 -13 30 -14 -66z"/>
<path d="M9780 4895 c0 -23 -29 -76 -59 -108 -27 -30 -68 -55 -111 -68 -15 -4
14 -8 78 -8 l102 -1 0 100 c0 55 -2 100 -5 100 -3 0 -5 -7 -5 -15z"/>
<path d="M330 4773 c1 -25 60 -81 90 -85 17 -2 26 -10 28 -25 4 -26 -5 -25
-77 9 -30 14 -61 23 -70 20 -9 -3 -12 -1 -7 6 4 7 2 12 -4 12 -28 0 1 -26 50
-46 58 -23 73 -39 43 -47 -11 -3 -7 -5 11 -6 36 -1 94 36 102 66 6 24 -29 67
-49 59 -8 -3 -8 -5 2 -5 11 -1 11 -4 1 -16 -18 -22 -91 16 -87 47 1 14 -4 23
-15 26 -12 2 -18 -3 -18 -15z m150 -83 c0 -5 -5 -10 -11 -10 -5 0 -7 5 -4 10
3 6 8 10 11 10 2 0 4 -4 4 -10z"/>
<path d="M300 4770 c-9 -6 -10 -10 -3 -10 6 0 15 5 18 10 8 12 4 12 -15 0z"/>
<path d="M5376 4713 c-3 -4 -6 -21 -6 -39 0 -25 -7 -38 -29 -53 -16 -12 -38
-21 -48 -21 -21 0 -43 -18 -43 -34 0 -6 5 -3 11 7 11 19 74 22 78 3 17 -96 7
-151 -31 -165 -22 -8 -22 -8 -2 -19 28 -15 93 -11 87 6 -3 6 2 12 12 12 10 0
15 -5 12 -14 -4 -10 10 -15 56 -19 70 -6 77 -4 77 26 0 20 1 20 13 2 16 -21
83 -31 103 -14 18 15 18 30 1 23 -7 -2 -19 7 -27 21 -12 23 -12 27 8 41 29 20
28 34 -2 34 -27 0 -44 33 -28 53 5 7 12 30 14 52 5 34 2 43 -18 58 -40 30
-218 60 -238 40z m121 -57 c-4 -9 -12 -16 -19 -16 -9 0 -9 3 0 12 8 8 8 17 0
32 -10 20 -9 20 7 4 10 -9 15 -23 12 -32z m-27 17 c0 -3 -7 -3 -15 1 -18 7
-20 -5 -3 -22 9 -9 9 -12 1 -12 -16 0 -26 18 -19 35 5 13 36 11 36 -2z m110
-43 c0 -5 -2 -10 -4 -10 -3 0 -8 5 -11 10 -3 6 -1 10 4 10 6 0 11 -4 11 -10z
m-160 -81 c0 -5 -7 -9 -15 -9 -9 0 -12 6 -9 15 6 15 24 11 24 -6z m80 6 c10
-12 10 -15 -4 -15 -9 0 -16 7 -16 15 0 8 2 15 4 15 2 0 9 -7 16 -15z m-113
-47 c-3 -8 -6 -5 -6 6 -1 11 2 17 5 13 3 -3 4 -12 1 -19z m55 5 c15 -14 18
-14 18 -1 0 8 7 15 15 15 8 0 15 -9 15 -19 0 -10 7 -18 16 -18 11 0 15 6 11
20 -6 22 0 25 22 11 12 -8 12 -13 -3 -35 -9 -15 -15 -30 -12 -34 2 -4 -17 -8
-43 -10 -25 -1 -47 -7 -49 -12 -2 -6 -8 -10 -14 -10 -6 0 -8 6 -5 13 3 7 -4
19 -14 25 -25 16 -24 32 2 32 16 0 20 5 16 20 -6 24 1 25 25 3z m93 -114 c10
-15 -1 -23 -20 -15 -9 3 -13 10 -10 16 8 13 22 13 30 -1z"/>
<path d="M337 4629 c7 -7 15 -10 18 -7 3 3 -2 9 -12 12 -14 6 -15 5 -6 -5z"/>
<path d="M285 4591 c-3 -5 2 -29 11 -53 31 -84 31 -88 -9 -88 -22 0 -37 6 -41
15 -3 8 -10 15 -16 15 -6 0 -8 -4 -5 -10 9 -14 -9 -12 -23 2 -10 10 -15 10
-22 -2 -5 -8 -8 -19 -7 -25 6 -18 82 -26 217 -22 113 3 136 6 138 19 5 24 -16
32 -34 13 -15 -14 -19 -14 -40 -1 -14 10 -25 12 -29 6 -3 -6 -19 -10 -36 -10
-35 0 -38 21 -9 65 11 17 20 40 20 53 0 12 5 22 12 22 6 0 9 3 6 6 -4 3 -15 1
-25 -4 -24 -12 -92 -25 -75 -13 11 6 10 10 -3 15 -22 8 -23 8 -30 -3z"/>
<path d="M5250 4506 c0 -2 8 -10 18 -17 15 -13 16 -12 3 4 -13 16 -21 21 -21
13z"/>
<path d="M8060 4113 c0 -6 9 -21 21 -34 l20 -24 -17 30 c-24 39 -24 40 -24 28z"/>
<path d="M8250 4089 c0 -5 5 -7 10 -4 6 3 10 8 10 11 0 2 -4 4 -10 4 -5 0 -10
-5 -10 -11z"/>
<path d="M8136 4082 c-2 -4 11 -6 30 -4 19 2 34 6 34 8 0 8 -59 4 -64 -4z"/>
<path d="M8339 4063 c-13 -16 -12 -17 4 -4 16 13 21 21 13 21 -2 0 -10 -8 -17
-17z"/>
<path d="M705 4051 c16 -27 55 -214 55 -268 l0 -63 40 0 40 0 0 -80 0 -80 40
0 40 0 0 240 0 240 -80 0 c-47 0 -80 4 -80 10 0 6 -14 10 -31 10 -16 0 -28 -4
-24 -9z"/>
<path d="M8066 4011 c-18 -35 -21 -61 -5 -61 5 0 7 5 4 10 -4 6 1 24 9 42 9
17 14 33 12 36 -3 2 -12 -10 -20 -27z"/>
<path d="M534 3986 c-19 -29 -24 -31 -73 -29 -45 2 -51 0 -41 -12 20 -25 102
-75 122 -75 20 0 37 34 45 92 4 28 1 38 -13 46 -16 8 -23 4 -40 -22z"/>
<path d="M8020 3997 c0 -9 -7 -17 -15 -17 -8 0 -15 -4 -15 -10 0 -5 6 -10 14
-10 15 0 32 37 22 47 -3 4 -6 -1 -6 -10z"/>
<path d="M7961 3984 c0 -11 3 -14 6 -6 3 7 2 16 -1 19 -3 4 -6 -2 -5 -13z"/>
<path d="M8290 3956 c0 -22 -6 -39 -17 -46 -15 -9 -13 -10 10 -5 21 4 27 2 28
-12 0 -11 3 -13 6 -5 3 7 0 19 -6 26 -7 8 -10 26 -7 40 3 14 0 28 -5 31 -5 4
-9 -10 -9 -29z"/>
<path d="M620 3935 c0 -8 6 -15 14 -15 17 0 40 -54 32 -75 -7 -19 -42 -19 -95
0 -23 8 -48 12 -56 9 -9 -4 -15 0 -15 7 0 8 -36 29 -81 47 -78 32 -106 35 -81
10 15 -15 15 -38 0 -38 -6 0 -22 9 -34 21 l-22 21 -2 -172 -1 -171 53 2 c29 1
68 8 86 16 49 21 73 24 88 9 16 -17 8 -26 -22 -26 -13 0 -26 -6 -31 -12 -11
-18 -52 -113 -49 -115 1 -1 24 6 50 16 46 17 69 37 60 52 -6 11 37 39 58 39
10 0 44 -13 75 -30 31 -16 69 -30 85 -30 20 0 27 -4 22 -12 -4 -7 -3 -8 4 -4
20 12 14 23 -19 36 -33 14 -58 58 -39 70 6 4 12 20 14 37 3 17 9 39 14 50 15
28 -3 63 -32 63 -14 0 -28 -4 -31 -10 -3 -5 -13 -10 -21 -10 -26 0 -14 19 24
39 35 18 83 61 68 61 -4 0 -20 -7 -36 -15 -26 -14 -29 -14 -24 0 3 8 10 13 14
10 5 -3 17 7 28 22 15 22 16 32 8 49 -6 11 -18 19 -26 17 -8 -2 -5 2 8 10 21
12 22 15 8 26 -12 10 -19 11 -30 2 -10 -8 -16 -9 -21 -1 -10 16 -45 12 -45 -5z
m12 -317 c-8 -8 -9 -4 -5 13 4 13 8 18 11 10 2 -7 -1 -18 -6 -23z m26 -54 l27
-25 -27 12 c-15 6 -29 18 -32 25 -8 21 2 17 32 -12z"/>
<path d="M7997 3909 c-21 -22 -34 -39 -29 -39 5 0 19 11 32 25 23 24 24 24 44
7 20 -17 21 -17 5 3 -9 11 -14 26 -12 33 6 17 4 15 -40 -29z"/>
<path d="M8178 3913 c7 -3 16 -2 19 1 4 3 -2 6 -13 5 -11 0 -14 -3 -6 -6z"/>
<path d="M8220 3885 c-17 -10 -20 -14 -9 -15 9 0 22 7 29 15 15 18 12 18 -20
0z"/>
<path d="M8110 3860 c8 -5 20 -10 25 -10 6 0 3 5 -5 10 -8 5 -19 10 -25 10 -5
0 -3 -5 5 -10z"/>
<path d="M8375 3860 c-3 -6 1 -7 9 -4 18 7 21 14 7 14 -6 0 -13 -4 -16 -10z"/>
<path d="M8095 3843 c4 -9 -3 -13 -22 -14 -26 -1 -26 -2 7 -9 42 -10 44 -9 24
16 -8 10 -13 13 -9 7z"/>
<path d="M7980 3829 c-20 -6 -17 -7 18 -8 23 -1 42 1 42 3 0 9 -37 12 -60 5z"/>
<path d="M8300 3830 c-9 -6 -10 -10 -3 -10 6 0 15 5 18 10 8 12 4 12 -15 0z"/>
<path d="M8160 3821 c0 -4 24 -8 52 -10 29 -1 50 0 48 2 -9 8 -100 15 -100 8z"/>
<path d="M8035 3761 c-3 -5 -1 -12 5 -16 5 -3 10 1 10 9 0 18 -6 21 -15 7z"/>
<path d="M8130 3756 c0 -8 4 -17 9 -20 5 -4 7 3 4 14 -6 23 -13 26 -13 6z"/>
<path d="M8138 3697 c-3 -19 -2 -25 4 -19 6 6 8 18 6 28 -3 14 -5 12 -10 -9z"/>
<path d="M615 3480 c-3 -6 1 -7 9 -4 18 7 21 14 7 14 -6 0 -13 -4 -16 -10z"/>
<path d="M795 3442 c1 -26 -4 -60 -11 -77 -12 -26 -20 -27 -15 -1 1 5 -12 -5
-28 -23 -17 -18 -28 -37 -25 -42 3 -5 -2 -6 -10 -3 -8 3 -30 -1 -48 -10 -18
-8 -53 -17 -78 -19 -25 -2 -9 -2 35 0 125 5 140 8 137 22 -1 7 2 9 8 6 17 -11
49 24 60 67 8 26 8 50 0 78 -15 56 -28 58 -25 2z"/>
<path d="M458 3303 c7 -3 16 -2 19 1 4 3 -2 6 -13 5 -11 0 -14 -3 -6 -6z"/>
<path d="M9212 3198 c-23 -52 -35 -62 -91 -76 -43 -10 -45 -10 -78 23 -18 18
-33 41 -33 51 0 42 -21 -6 -27 -61 -5 -45 -2 -65 12 -91 18 -33 18 -34 -6 -54
-24 -20 -24 -20 -5 -35 16 -12 17 -15 4 -15 -21 0 -31 -29 -17 -47 7 -7 14
-12 16 -10 8 9 72 -65 67 -77 -7 -19 28 -30 41 -13 8 11 23 14 59 10 39 -5 53
-2 77 16 24 18 33 20 45 11 18 -15 48 6 39 27 -8 21 6 65 19 60 21 -8 34 17
17 33 -8 8 -18 14 -21 13 -3 -1 -5 14 -5 34 0 31 -4 38 -25 43 -22 5 -26 13
-30 55 -5 45 -6 47 -13 22 -7 -26 -9 -27 -30 -12 -12 8 -26 15 -32 15 -5 0 5
-9 22 -20 40 -24 54 -67 28 -87 -16 -11 -16 -13 -3 -13 9 0 24 7 33 16 16 16
45 13 45 -6 0 -32 -278 -76 -319 -51 -27 17 0 29 57 26 31 -1 41 0 22 2 -45 6
-52 19 -34 61 18 44 39 59 91 68 34 5 47 13 70 47 43 64 44 65 34 72 -6 3 -18
-14 -29 -37z m-181 -75 c13 -23 14 -33 5 -55 -17 -39 -36 -17 -36 39 0 50 9
54 31 16z m125 -192 c-3 -5 1 -12 10 -15 8 -3 13 -10 9 -16 -3 -5 -1 -19 5
-30 9 -16 8 -25 -2 -38 -11 -14 -11 -15 5 -9 10 4 23 7 28 7 6 0 7 6 2 13 -4
6 -6 20 -5 30 2 9 -3 17 -10 17 -8 0 -15 10 -15 22 -2 16 0 19 6 9 5 -7 14
-11 20 -7 7 5 9 1 5 -8 -4 -11 0 -16 10 -16 12 0 15 7 12 25 -3 18 0 25 11 25
12 0 13 -8 8 -42 -8 -53 -43 -88 -88 -88 -38 0 -50 7 -66 37 -16 30 -14 35 9
28 19 -6 26 8 21 39 -1 5 4 13 11 17 17 11 20 11 14 0z m-36 -35 c-1 -21 -1
-21 -15 -2 -10 13 -15 15 -15 6 0 -7 -3 -11 -6 -7 -9 9 3 24 21 24 9 0 15 -9
15 -21z"/>
<path d="M9240 3185 c0 -5 5 -17 10 -25 5 -8 10 -10 10 -5 0 6 -5 17 -10 25
-5 8 -10 11 -10 5z"/>
<path d="M1240 2572 c0 -74 10 -92 49 -92 24 0 24 -1 9 -17 -14 -14 -20 -14
-33 -3 -8 7 -19 10 -23 6 -4 -4 -8 -124 -10 -267 l-3 -259 70 0 71 0 0 60 c0
55 -11 78 -23 48 -3 -7 -6 6 -6 30 -1 45 4 48 44 30 29 -13 32 -33 8 -47 -16
-9 -16 -10 3 -11 15 0 24 8 29 27 4 19 9 23 15 14 4 -8 13 -10 20 -6 9 5 11 4
6 -3 -4 -7 -1 -12 9 -12 9 0 13 -4 10 -10 -4 -6 10 -10 35 -10 34 0 46 5 63
27 l21 27 6 -25 c5 -21 12 -24 53 -27 l47 -3 0 55 0 56 -63 -1 c-59 -1 -64 -3
-80 -31 -9 -16 -15 -34 -11 -39 9 -16 -12 -10 -38 10 -25 20 -104 46 -126 42
-8 -1 -20 3 -29 10 -10 9 -17 9 -21 2 -11 -17 -62 -22 -62 -7 0 8 -9 14 -21
14 -17 0 -20 5 -17 32 3 28 9 34 52 49 58 20 71 37 49 62 -10 10 -18 28 -20
40 -2 19 -2 20 8 5 5 -10 15 -18 20 -18 6 0 7 5 3 12 -4 7 -3 8 5 4 9 -6 9
-11 0 -22 -10 -12 -9 -13 5 -8 12 5 15 2 10 -12 -4 -15 -1 -14 15 5 25 27 27
59 6 87 -17 23 -20 55 -4 52 7 -2 15 10 20 25 13 49 28 59 73 52 58 -10 88
-55 36 -55 -10 0 -22 -5 -26 -12 -4 -6 -3 -9 2 -6 5 3 19 2 32 -3 45 -17 22
-95 -36 -121 l-37 -17 32 0 c17 -1 35 4 38 9 10 16 33 11 40 -8 3 -11 23 -25
45 -32 33 -11 42 -11 57 1 15 12 16 12 11 -2 -4 -11 3 -25 18 -40 l24 -22 0
105 0 105 -30 -5 c-34 -5 -39 7 -10 26 13 8 20 8 20 1 0 -5 5 -7 10 -4 12 8
13 55 1 55 -5 0 -25 -7 -44 -15 -51 -21 -74 -19 -80 8 -3 12 -9 33 -13 46 -5
17 -4 22 4 17 6 -4 41 -9 77 -10 l65 -4 0 49 0 49 -151 0 c-87 0 -148 -4 -145
-9 3 -5 15 -7 26 -4 11 3 26 0 34 -6 11 -9 62 -16 156 -20 25 -2 -4 -22 -44
-31 -26 -6 -45 -4 -67 7 -23 11 -39 12 -76 5 -28 -6 -54 -7 -63 -2 -10 6 -11
9 -2 10 6 0 12 5 12 10 0 6 -8 10 -17 8 -12 -2 -17 3 -15 15 2 15 -6 17 -63
17 l-65 0 0 -68z m435 28 c3 -5 1 -10 -4 -10 -6 0 -11 5 -11 10 0 6 2 10 4 10
3 0 8 -4 11 -10z m-22 -146 c-7 -3 -9 -12 -6 -19 4 -12 0 -13 -26 -4 -34 12
-43 24 -11 16 11 -3 23 -1 26 4 3 5 11 9 17 8 9 0 9 -2 0 -5z m-3 -330 c0 -8
-4 -14 -10 -14 -5 0 -10 9 -10 21 0 11 5 17 10 14 6 -3 10 -13 10 -21z m-339
-47 c-8 -8 -11 -4 -11 14 0 33 14 47 18 19 2 -12 -1 -27 -7 -33z m9 -48 c0 -5
7 -9 15 -9 8 0 15 -4 15 -10 0 -14 -12 -12 -38 6 -25 17 -30 36 -7 28 8 -4 15
-10 15 -15z"/>
<path d="M1536 2305 c4 -8 8 -15 10 -15 2 0 4 7 4 15 0 8 -4 15 -10 15 -5 0
-7 -7 -4 -15z"/>
<path d="M1520 2146 c-7 -10 -8 -21 -2 -32 8 -14 12 -12 31 15 21 30 22 31 3
31 -11 0 -25 -7 -32 -14z"/>
<path d="M8360 2050 c0 -5 6 -10 14 -10 8 0 18 5 21 10 3 6 -3 10 -14 10 -12
0 -21 -4 -21 -10z"/>
<path d="M1441 2003 c1 -22 2 -23 6 -8 3 11 10 23 17 27 7 5 5 8 -6 8 -13 0
-18 -7 -17 -27z"/>
<path d="M8238 1988 l-3 -43 -22 35 -23 35 0 -37 c0 -38 0 -38 40 -38 35 0 40
3 40 23 0 32 -11 67 -21 67 -4 0 -9 -19 -11 -42z"/>
<path d="M8455 1991 c-66 -22 -99 -54 -52 -51 72 6 67 19 67 -170 l0 -170 75
0 c66 0 77 3 100 25 17 18 25 37 25 59 0 30 -5 36 -38 49 -23 9 -43 26 -50 42
-10 21 -15 25 -26 16 -10 -9 -17 -6 -30 13 -10 15 -12 27 -6 31 16 10 11 70
-10 119 -20 48 -22 49 -55 37z"/>
<path d="M1470 1955 c-2 -35 -3 -37 -10 -15 -7 22 -8 21 -9 -12 -1 -31 2 -36
16 -31 13 5 15 2 9 -18 -3 -13 -9 -37 -13 -52 -8 -41 -28 -26 -26 19 2 35 1
37 -8 14 -6 -14 -8 -36 -6 -50 3 -14 1 -32 -4 -41 -6 -13 -4 -18 11 -22 13 -3
20 -14 20 -31 0 -14 13 -40 28 -57 25 -28 35 -32 76 -32 27 1 58 9 74 19 15
10 37 17 49 15 17 -2 26 6 38 35 27 64 45 148 35 158 -7 7 -10 4 -10 -6 0 -10
-12 -53 -26 -98 -20 -65 -29 -80 -42 -76 -9 2 -52 12 -94 21 -92 20 -90 11
-49 168 25 100 26 108 9 103 -10 -3 -27 -9 -37 -12 -15 -4 -20 0 -24 18 -3 15
-5 10 -7 -17z m59 -24 c-7 -20 -15 -28 -25 -24 -20 7 -17 18 9 36 12 9 23 16
24 16 1 1 -3 -12 -8 -28z m-34 -83 c-4 -24 -11 -47 -17 -53 -6 -6 -7 0 -4 18
3 15 8 38 11 52 9 42 17 28 10 -17z m-11 -71 c8 8 8 -11 0 -32 -6 -14 -8 -14
-25 1 -26 23 -26 48 0 35 10 -6 21 -7 25 -4z m46 -98 c0 -3 14 -5 30 -3 32 4
36 -2 20 -26 -9 -13 -11 -13 -20 0 -7 11 -10 12 -10 2 0 -8 -9 -12 -22 -10
-18 2 -22 8 -20 28 4 24 3 25 -12 5 -15 -19 -16 -19 -9 -1 4 12 3 17 -4 13 -6
-4 -13 1 -15 11 -5 17 -3 17 28 3 19 -8 34 -18 34 -22z m80 -24 c-7 -9 -15
-13 -17 -11 -7 7 7 26 19 26 6 0 6 -6 -2 -15z"/>
<path d="M1821 1967 c-1 -9 -12 -45 -26 -79 -14 -34 -23 -63 -21 -65 7 -8 58
135 53 148 -4 10 -6 8 -6 -4z"/>
<path d="M1786 1955 c-3 -9 -6 -24 -5 -33 0 -9 5 -4 10 12 9 32 6 48 -5 21z"/>
<path d="M1632 1941 c87 -28 121 -34 69 -11 -24 11 -62 22 -85 25 -38 5 -37 4
16 -14z"/>
<path d="M1600 1899 c-45 -10 -70 -41 -70 -91 0 -50 13 -74 50 -93 40 -21 64
-19 96 8 37 32 45 110 15 148 -25 32 -44 38 -91 28z m60 -49 c37 -37 24 -110
-20 -110 -42 0 -67 28 -75 83 l-6 47 40 0 c28 0 48 -7 61 -20z"/>
<path d="M1606 1831 c-28 -31 1 -79 36 -60 20 11 24 49 6 67 -16 16 -22 15
-42 -7z"/>
<path d="M1767 1893 c-4 -3 -7 -13 -7 -22 1 -13 3 -13 11 2 11 19 8 33 -4 20z"/>
<path d="M2470 1610 l0 -240 79 0 c70 0 83 3 105 24 15 13 26 27 26 32 0 5 18
8 40 6 24 -3 40 -9 40 -17 0 -22 48 -45 95 -45 l45 0 0 75 c0 73 1 75 25 75
l25 0 0 165 0 165 -240 0 -240 0 0 -240z m206 13 c-10 -10 -19 5 -10 18 6 11
8 11 12 0 2 -7 1 -15 -2 -18z m99 7 c-3 -5 -11 -10 -16 -10 -6 0 -7 5 -4 10 3
6 11 10 16 10 6 0 7 -4 4 -10z m-91 -29 c9 -14 -6 -22 -21 -10 -10 9 -17 8
-28 -1 -14 -12 -22 0 -8 13 9 10 51 9 57 -2z m131 -7 c19 -15 19 -15 -10 -9
-16 4 -35 8 -42 10 -17 6 -26 -11 -18 -35 4 -11 15 -20 26 -20 11 0 18 4 15 9
-3 5 5 11 18 13 22 4 23 3 15 -19 -19 -50 -30 -62 -73 -78 -43 -17 -46 -17
-78 2 -18 10 -41 34 -52 52 l-19 33 31 -5 c23 -4 36 1 52 18 12 13 28 21 36
18 8 -3 17 2 20 11 8 20 53 20 79 0z m-252 -11 c-7 -3 -9 -12 -6 -21 5 -13 3
-14 -7 -5 -16 14 -5 47 12 37 9 -6 9 -9 1 -11z m314 -10 c5 -13 -33 -60 -41
-52 -9 9 4 40 14 34 4 -3 10 2 13 9 3 8 2 17 -4 20 -5 2 -4 3 3 2 6 -1 13 -7
15 -13z m-230 -9 c-3 -3 -12 -4 -19 -1 -8 3 -5 6 6 6 11 1 17 -2 13 -5z m-52
-43 c-10 -10 -34 10 -29 24 6 14 8 13 19 -2 8 -10 12 -20 10 -22z"/>
<path d="M8312 1817 c7 -8 15 -12 18 -8 3 3 11 7 19 9 12 2 11 -1 -1 -20 -22
-34 -12 -51 18 -31 16 10 24 23 22 37 -2 17 -11 22 -46 24 -38 3 -42 1 -30
-11z"/>
<path d="M1763 1795 c-3 -9 -3 -18 -1 -21 3 -3 8 4 11 16 6 23 -1 27 -10 5z"/>
<path d="M1377 1769 c7 -7 15 -10 18 -7 3 3 -2 9 -12 12 -14 6 -15 5 -6 -5z"/>
<path d="M1744 1735 c-11 -22 -10 -24 8 -22 12 1 23 -4 25 -10 3 -8 -5 -13
-21 -13 -27 0 -43 -15 -23 -23 34 -13 76 30 46 48 -6 4 -13 15 -17 25 -6 17
-8 17 -18 -5z"/>
<path d="M8044 1694 c-20 -30 -8 -44 32 -36 28 5 27 4 12 37 -14 32 -23 32
-44 -1z"/>
<path d="M1395 1679 c11 -6 21 -13 23 -15 2 -1 -6 -20 -17 -43 -32 -61 -25
-63 9 -2 35 63 33 58 18 58 -7 0 -22 4 -33 8 l-20 7 20 -13z"/>
<path d="M1850 1620 l0 -50 -35 0 -35 0 0 -190 0 -190 50 0 50 0 6 40 6 40 27
-19 c14 -10 35 -21 46 -24 11 -4 3 -4 -18 -1 -27 4 -37 2 -32 -6 3 -6 2 -9 -3
-8 -6 2 -10 -1 -11 -7 -1 -6 67 -11 179 -13 l180 -2 0 182 0 183 -27 -47 c-14
-26 -31 -49 -38 -52 -16 -6 -55 21 -55 38 0 24 36 54 78 65 l42 12 0 49 0 50
-205 0 -205 0 0 -50z m100 -25 c-11 -22 -20 -33 -20 -26 0 14 32 72 37 68 1
-2 -6 -21 -17 -42z m273 -22 c-7 -2 -21 -2 -30 0 -10 3 -4 5 12 5 17 0 24 -2
18 -5z m-56 -9 c-3 -3 -12 -4 -19 -1 -8 3 -5 6 6 6 11 1 17 -2 13 -5z m-271
-23 c-3 -4 18 -11 47 -14 47 -5 142 -35 135 -43 -2 -1 -30 7 -63 18 -44 15
-78 19 -127 16 -38 -2 -68 -2 -68 0 0 4 62 31 73 32 5 0 6 -4 3 -9z m205 -14
c-10 -9 -11 -8 -5 6 3 10 9 15 12 12 3 -3 0 -11 -7 -18z m-116 -47 c3 -5 1
-10 -4 -10 -6 0 -11 5 -11 10 0 6 2 10 4 10 3 0 8 -4 11 -10z m-71 -50 c7 0
30 -8 52 -19 21 -10 56 -21 77 -25 20 -4 37 -11 37 -16 0 -20 16 -9 28 18 12
27 12 27 7 -7 -6 -37 -44 -95 -75 -111 -32 -17 -130 14 -130 42 0 5 6 6 13 2
7 -4 9 -3 4 2 -5 5 -14 9 -20 9 -17 0 -27 54 -19 104 4 28 8 37 10 24 2 -13 9
-23 16 -23z m76 11 c0 -6 -4 -13 -10 -16 -5 -3 -10 1 -10 9 0 9 5 16 10 16 6
0 10 -4 10 -9z m110 -32 c0 -6 -4 -7 -10 -4 -5 3 -10 11 -10 16 0 6 5 7 10 4
6 -3 10 -11 10 -16z m-240 -66 c0 -21 -3 -24 -9 -14 -5 8 -7 20 -4 28 8 21 13
15 13 -14z"/>
<path d="M1910 1371 c0 -6 9 -11 20 -11 11 0 20 -3 20 -8 0 -16 41 -33 58 -23
16 10 15 10 -2 11 -11 0 -27 6 -35 14 -22 19 -61 30 -61 17z"/>
<path d="M1662 1638 c-7 -7 -12 -26 -11 -42 l1 -31 7 31 c4 17 11 36 15 42 9
15 3 15 -12 0z"/>
<path d="M1751 1613 c7 -12 15 -20 18 -17 3 2 -3 12 -13 22 -17 16 -18 16 -5
-5z"/>
<path d="M8238 1583 c7 -3 16 -2 19 1 4 3 -2 6 -13 5 -11 0 -14 -3 -6 -6z"/>
<path d="M3103 1465 c-23 -6 -52 -20 -65 -33 -14 -12 -30 -22 -37 -22 -7 0
-10 -4 -7 -8 2 -4 1 -14 -4 -22 -7 -11 -11 -11 -24 -1 -13 11 -16 11 -16 0 0
-8 7 -22 14 -32 8 -10 12 -27 9 -37 -7 -25 12 -26 26 -2 10 16 10 16 11 0 0
-10 -9 -22 -20 -28 -23 -12 -27 -30 -7 -30 8 0 22 -10 33 -22 10 -12 13 -18 7
-14 -17 9 -17 -16 -1 -32 16 -16 -4 -16 -22 1 -9 7 -8 4 2 -8 23 -29 30 -59
20 -86 -13 -33 -5 -49 24 -49 17 0 24 6 24 20 0 12 12 26 31 36 l32 16 -24 11
c-12 7 -32 27 -43 46 -18 31 -18 34 -3 28 15 -5 16 -3 7 13 -5 10 -10 21 -10
24 0 10 65 54 90 61 20 5 18 2 -10 -16 -25 -16 -31 -23 -20 -27 8 -3 20 -9 27
-14 9 -7 11 -4 8 11 -4 22 10 29 18 9 2 -7 9 3 14 22 8 28 10 11 11 -88 0 -68
-4 -125 -10 -128 -16 -10 -20 3 -8 26 16 30 5 37 -17 11 -9 -12 -29 -21 -44
-21 -22 0 -26 -4 -22 -20 5 -18 14 -20 84 -20 43 0 81 5 84 10 3 6 13 10 21
10 8 0 12 -4 9 -10 -4 -6 12 -10 41 -10 45 0 46 1 31 18 -21 24 -21 39 0 50
15 9 15 12 -4 44 -18 31 -19 36 -5 44 10 7 16 29 18 60 2 33 0 44 -6 34 -8
-13 -10 -13 -10 2 0 9 6 18 13 21 9 3 9 7 -1 20 -8 9 -20 13 -27 11 -12 -5
-42 31 -81 98 -11 19 -12 19 -26 -1 -10 -14 -21 -19 -32 -15 -19 7 -20 16 -5
31 15 15 -46 21 -98 8z m182 -134 c7 -12 -12 -24 -25 -16 -11 7 -4 25 10 25 5
0 11 -4 15 -9z m-160 -21 c3 -5 1 -10 -4 -10 -6 0 -11 5 -11 10 0 6 2 10 4 10
3 0 8 -4 11 -10z m205 -20 c0 -5 -9 -14 -20 -20 -22 -12 -27 -1 -8 18 14 14
28 16 28 2z m-50 -50 c0 -5 -2 -10 -4 -10 -3 0 -8 5 -11 10 -3 6 -1 10 4 10 6
0 11 -4 11 -10z"/>
<path d="M2605 1250 c-3 -11 -5 -50 -4 -87 1 -38 0 -77 -4 -88 -4 -13 1 -35
12 -58 l19 -38 -34 -50 c-33 -50 -45 -99 -24 -99 6 0 25 7 42 16 l31 16 -7
-36 -7 -36 51 0 c54 0 59 4 34 31 -9 10 -13 23 -9 29 5 8 18 -1 37 -24 31 -38
48 -46 48 -21 0 9 11 20 25 25 32 12 31 18 -6 91 -28 56 -29 63 -15 78 22 24
30 75 18 109 -7 21 -6 44 4 83 8 29 14 60 13 69 -1 8 -7 -9 -14 -38 -16 -65
-19 -69 -42 -47 -9 10 -32 24 -50 32 -25 10 -33 19 -33 38 0 14 -4 25 -10 25
-5 0 -10 -8 -10 -17 0 -9 -12 -29 -26 -44 -21 -22 -24 -30 -15 -47 6 -12 7
-23 2 -26 -14 -9 -22 37 -15 88 7 47 0 62 -11 26z m125 -60 c51 -26 73 -60 74
-115 1 -50 -24 -84 -65 -90 -13 -1 -31 -6 -40 -9 -8 -4 -30 3 -50 17 -26 17
-34 30 -34 52 0 23 5 31 23 33 19 3 22 -1 22 -27 0 -17 5 -31 10 -31 6 0 10
20 10 44 0 42 19 74 35 58 4 -4 6 0 3 8 -2 8 -18 16 -35 18 -37 4 -52 31 -27
49 23 17 28 17 74 -7z m-76 -250 c-10 -4 -21 -6 -24 -3 -8 7 24 22 34 16 5 -4
1 -10 -10 -13z"/>
<path d="M2717 1093 c-11 -10 -8 -73 3 -73 6 0 10 18 10 40 0 41 -2 45 -13 33z"/>
<path d="M2677 995 c6 -17 25 -15 31 3 2 7 -5 12 -17 12 -14 0 -19 -5 -14 -15z"/>
<path d="M2746 1255 c-3 -9 -6 -24 -5 -33 0 -9 5 -4 10 12 9 32 6 48 -5 21z"/>
<path d="M2982 1231 c2 -7 7 -12 11 -12 12 1 9 15 -3 20 -7 2 -11 -2 -8 -8z"/>
<path d="M2930 1179 c0 -5 5 -7 10 -4 6 3 10 8 10 11 0 2 -4 4 -10 4 -5 0 -10
-5 -10 -11z"/>
<path d="M3135 1154 c-20 -15 -20 -16 4 -12 14 2 26 9 29 16 5 16 -9 15 -33
-4z"/>
<path d="M2960 1050 c-13 -8 -12 -10 3 -10 9 0 17 5 17 10 0 12 -1 12 -20 0z"/>
<path d="M6570 935 c0 -104 2 -125 15 -125 12 0 15 -16 15 -80 0 -44 -2 -80
-5 -80 -15 0 -37 67 -32 101 l5 38 -50 10 c-83 18 -232 14 -320 -10 l-78 -21
0 -164 0 -164 31 -32 c17 -18 34 -38 38 -45 3 -7 16 -10 29 -7 12 4 20 10 17
14 -3 5 3 6 14 3 13 -3 20 2 24 17 3 13 13 21 24 20 31 -4 43 0 43 11 0 6 -8
8 -19 4 -32 -10 -81 42 -88 93 -5 35 -2 49 17 74 12 17 17 27 10 23 -9 -6 -10
-3 -1 13 16 30 31 36 31 13 0 -58 33 -67 78 -21 l31 30 15 -30 c18 -37 12 -60
-16 -60 -11 0 -18 -5 -15 -12 2 -7 16 -12 31 -11 31 2 33 -6 6 -40 -15 -18
-17 -27 -8 -30 17 -6 -20 -36 -44 -37 -14 0 -13 -4 7 -25 14 -13 25 -36 25
-50 0 -26 21 -33 50 -15 12 7 11 12 -5 30 l-20 22 25 -3 c16 -3 24 0 23 9 -5
22 12 12 42 -28 22 -28 38 -39 58 -40 l27 0 0 125 0 125 50 0 50 0 -3 208 c-2
114 -7 216 -11 227 -6 14 -5 16 2 6 6 -9 11 -9 13 -2 3 7 60 11 177 12 140 0
172 3 172 14 0 11 -38 14 -212 15 -188 0 -214 -2 -232 -17 -19 -17 -20 -17 -7
0 12 15 11 17 -8 17 -20 0 -21 -4 -21 -125z m61 92 c-10 -9 -11 -8 -5 6 3 10
9 15 12 12 3 -3 0 -11 -7 -18z m-34 -54 c-3 -10 -5 -4 -5 12 0 17 2 24 5 18 2
-7 2 -21 0 -30z m57 -45 c-3 -4 -9 -8 -15 -8 -5 0 -9 4 -9 8 0 5 7 9 15 9 8 0
12 -4 9 -9z m-385 -201 c-2 -1 -13 -9 -24 -17 -19 -14 -19 -14 -6 3 7 9 18 17
24 17 6 0 8 -1 6 -3z m282 -98 c12 -25 17 -44 11 -48 -5 -3 -13 -26 -17 -51
-7 -45 -23 -85 -30 -78 -2 2 2 22 9 43 23 67 27 122 11 129 -13 5 -22 46 -10
46 2 0 14 -19 26 -41z m-51 2 c0 -6 -4 -13 -10 -16 -5 -3 -10 1 -10 9 0 9 5
16 10 16 6 0 10 -4 10 -9z m0 -180 c0 -5 -7 -12 -16 -15 -14 -5 -15 -4 -4 9
14 17 20 19 20 6z"/>
<path d="M4610 885 l0 -165 24 0 c14 0 32 8 42 18 17 16 17 17 0 20 -17 4 -41
50 -32 60 3 3 13 -1 22 -9 16 -13 17 -12 12 8 -7 25 8 41 23 26 5 -5 10 -24
12 -43 2 -19 9 -36 16 -38 14 -5 14 13 1 38 -7 13 -7 28 1 47 7 20 7 39 -1 69
-10 34 -9 47 2 69 l15 27 29 -48 c16 -27 31 -67 34 -88 3 -23 11 -41 20 -43
11 -3 11 -2 3 4 -8 6 -9 20 -4 45 5 20 5 42 0 49 -5 8 -1 21 9 33 14 15 14 18
2 14 -18 -6 -50 8 -50 23 0 6 8 5 21 -2 28 -15 85 -3 102 22 13 18 15 16 21
-29 3 -27 3 -58 -1 -67 -4 -12 -3 -16 5 -11 20 12 23 -13 3 -31 -11 -10 -23
-41 -29 -70 -9 -50 -8 -52 15 -58 31 -7 42 0 36 25 -3 13 0 20 8 20 9 0 10 3
4 8 -17 12 -33 48 -27 59 4 5 19 12 33 15 24 4 26 3 25 -39 -1 -46 4 -52 24
-28 13 16 40 21 40 7 0 -4 -5 -13 -12 -20 -7 -7 -9 -12 -5 -12 4 0 3 -9 -3
-20 -6 -11 -18 -20 -26 -20 -8 0 -12 5 -8 11 5 8 1 8 -13 0 -11 -6 -23 -8 -26
-4 -4 3 -9 -2 -13 -11 -3 -9 -16 -17 -28 -17 -30 -2 29 -16 69 -17 25 -1 27 1
10 8 -11 5 -15 9 -8 9 6 1 19 4 29 8 13 5 16 3 11 -9 -6 -16 25 -32 37 -20 3
3 6 81 6 174 l0 168 -240 0 -240 0 0 -165z"/>
<path d="M6818 923 c-77 -62 -75 -57 -50 -187 l17 -90 110 -27 c80 -21 113
-25 123 -17 7 6 35 40 63 75 l51 63 -7 88 c-4 48 -9 94 -11 104 -3 12 -28 20
-92 32 -48 9 -98 16 -112 15 -15 0 -52 -22 -92 -56z m108 32 c4 -10 11 -12 23
-6 10 6 23 6 32 0 12 -8 12 -10 -1 -19 -8 -5 -22 -7 -30 -3 -8 3 -26 7 -40 9
-14 1 -29 3 -35 4 -11 1 24 30 37 30 5 0 11 -7 14 -15z m128 -24 c3 -5 -1 -12
-10 -15 -27 -10 -44 -7 -44 9 0 16 45 21 54 6z m-186 -29 c5 -15 -23 -26 -45
-17 -17 6 -17 7 2 21 21 16 37 14 43 -4z m72 -13 c0 -14 -50 -23 -62 -11 -8 8
-5 14 13 20 26 10 49 6 49 -9z m58 -11 c-5 -15 -58 -24 -58 -10 0 15 12 22 38
22 14 0 22 -5 20 -12z m53 -121 c-17 -17 -24 18 -9 45 l13 23 3 -29 c2 -16 -1
-33 -7 -39z m-211 23 c9 -16 8 -22 -5 -26 -18 -7 -45 12 -45 32 0 21 38 17 50
-6z m266 -37 c-5 -12 -10 -13 -17 -6 -8 8 -7 18 2 34 12 21 14 22 17 6 2 -10
1 -25 -2 -34z m-206 -33 c0 -11 -6 -20 -14 -20 -20 0 -39 27 -32 45 8 22 46 1
46 -25z m44 -36 c18 -17 20 -30 7 -38 -22 -14 -59 23 -45 45 8 13 21 11 38 -7z"/>
<path d="M5530 730 l0 -240 240 0 240 0 0 240 0 240 -240 0 -240 0 0 -240z
m311 160 c10 -6 19 -16 19 -22 0 -6 -3 -8 -7 -5 -3 4 -11 3 -17 -1 -6 -4 -36
-5 -66 -2 l-55 6 35 17 c41 19 64 21 91 7z m129 -270 c12 -8 11 -10 -7 -10
-13 0 -23 5 -23 10 0 13 11 13 30 0z m-20 -45 c0 -8 -7 -15 -15 -15 -16 0 -20
12 -8 23 11 12 23 8 23 -8z m-206 -4 c3 -4 3 -11 0 -14 -8 -8 -34 3 -34 14 0
11 27 12 34 0z"/>
<path d="M3695 830 c-3 -5 1 -10 10 -10 9 0 13 5 10 10 -3 6 -8 10 -10 10 -2
0 -7 -4 -10 -10z"/>
<path d="M4775 830 c-3 -6 1 -7 9 -4 18 7 21 14 7 14 -6 0 -13 -4 -16 -10z"/>
<path d="M3606 822 c-3 -6 -1 -14 5 -17 14 -9 20 -2 10 14 -6 8 -11 9 -15 3z"/>
<path d="M6135 800 c-13 -5 -14 -9 -5 -9 8 0 24 4 35 9 13 5 14 9 5 9 -8 0
-24 -4 -35 -9z"/>
<path d="M3725 790 c3 -5 18 -10 33 -10 29 0 20 -15 -13 -23 -19 -5 -19 -5 3
-12 22 -7 28 -29 16 -59 -5 -13 -10 -13 -42 4 -20 11 -38 18 -40 16 -5 -6 37
-86 46 -86 14 0 38 20 25 20 -8 0 -4 9 8 21 11 11 23 18 26 15 3 -2 11 0 17 7
10 9 9 15 -6 31 -23 25 -23 37 1 43 11 3 22 11 25 18 3 8 -2 11 -14 8 -10 -3
-21 0 -24 6 -4 6 -21 11 -37 11 -18 0 -28 -4 -24 -10z"/>
<path d="M4764 758 c-36 -17 -54 -78 -24 -78 5 0 7 9 5 20 -3 17 -1 19 16 10
10 -6 18 -18 18 -28 -1 -14 -2 -14 -6 2 -4 14 -7 16 -13 6 -5 -7 -6 -19 -3
-27 7 -19 56 -43 88 -43 36 0 31 15 -5 16 -37 1 -48 10 -32 26 8 8 15 8 24 0
15 -12 104 -19 114 -9 4 4 -1 7 -12 7 -16 0 -17 2 -4 10 12 8 12 10 -5 10 -13
0 -25 11 -33 30 -15 32 -31 37 -62 18 -17 -11 -22 -10 -30 2 -13 21 -12 33 2
24 7 -4 8 -3 4 4 -8 14 -14 14 -42 0z"/>
<path d="M3670 753 c0 -5 13 -17 27 -27 l27 -20 -20 27 c-18 26 -34 35 -34 20z"/>
<path d="M3470 712 c0 -7 -7 -12 -15 -12 -8 0 -15 -7 -15 -15 0 -13 4 -12 22
5 12 11 18 23 15 27 -4 3 -7 1 -7 -5z"/>
<path d="M3636 698 c5 -8 2 -9 -9 -5 -13 5 -17 0 -18 -21 0 -15 -2 -38 -5 -51
-4 -20 -2 -22 10 -12 8 7 12 20 9 29 -6 15 -4 15 10 4 9 -8 21 -11 27 -7 13 8
13 45 0 45 -5 0 -10 7 -10 15 0 8 -5 15 -11 15 -5 0 -7 -5 -3 -12z"/>
<path d="M4664 675 c-8 -20 0 -30 51 -59 48 -29 127 -38 148 -17 8 8 0 11 -31
11 -34 0 -49 7 -83 37 -45 40 -77 51 -85 28z"/>
<path d="M3837 659 c-9 -5 -21 -7 -27 -4 -5 3 -19 -13 -31 -36 -14 -29 -23
-38 -29 -29 -5 9 -10 3 -15 -18 -14 -68 -82 -97 -145 -64 -25 13 -25 13 2 -11
21 -20 34 -24 62 -20 35 5 36 4 36 -31 l0 -36 90 0 90 0 0 130 c0 72 -3 130
-7 130 -5 0 -16 -5 -26 -11z"/>
<path d="M3435 611 c5 -15 2 -21 -9 -21 -9 0 -16 -4 -16 -10 0 -5 3 -9 8 -7 4
1 26 -17 50 -40 26 -27 51 -43 67 -43 13 0 29 -8 35 -17 12 -19 12 -17 0 32
-5 22 0 55 9 55 5 0 17 -7 25 -16 9 -8 16 -11 16 -6 0 11 -28 36 -58 52 -22
11 -23 10 -17 -12 l8 -23 -22 25 c-13 14 -19 19 -15 11 4 -8 8 -26 10 -41 3
-26 2 -27 -21 -16 -14 6 -23 17 -20 24 2 6 0 12 -5 12 -6 0 -10 -6 -10 -12 0
-23 -20 16 -20 39 0 12 -5 25 -11 29 -8 4 -9 0 -4 -15z"/>
<path d="M3510 616 c6 -6 18 -5 32 1 21 10 21 10 -9 9 -19 -1 -28 -5 -23 -10z"/>
<path d="M6260 560 c0 -5 4 -10 9 -10 6 0 13 5 16 10 3 6 -1 10 -9 10 -9 0
-16 -4 -16 -10z"/>
</g>
</svg>
